<?xml version="1.0" standalone="no"?>
<!DOCTYPE svg PUBLIC "-//W3C//DTD SVG 20010904//EN"
 "http://www.w3.org/TR/2001/REC-SVG-20010904/DTD/svg10.dtd">
<svg version="1.0" xmlns="http://www.w3.org/2000/svg"
 width="500.000000pt" height="500.000000pt" viewBox="0 0 500.000000 500.000000"
 preserveAspectRatio="xMidYMid meet">

<g transform="translate(0.000000,500.000000) scale(0.100000,-0.100000)"
fill="#000000" stroke="none">
<path d="M2292 4419 c-214 -20 -460 -91 -651 -187 -544 -275 -922 -767 -1042
-1358 -31 -152 -38 -469 -15 -637 109 -778 682 -1416 1441 -1603 159 -39 286
-54 470 -54 520 0 979 182 1343 534 299 289 485 636 564 1056 29 152 32 490 5
645 -108 626 -502 1152 -1067 1424 -325 157 -672 217 -1048 180z m166 -408
c139 -123 252 -224 252 -225 0 0 -73 0 -162 2 -196 4 -326 -14 -478 -64 -374
-124 -658 -419 -797 -829 -84 -247 -97 -535 -33 -741 11 -37 8 -61 -34 -270
-26 -126 -50 -237 -54 -247 -15 -38 -154 263 -210 453 -52 178 -66 276 -66
470 -1 144 3 196 22 290 61 302 209 568 452 810 224 224 477 378 713 434 l89
21 -6 63 c-4 34 -9 77 -13 95 l-6 31 40 -34 c22 -19 153 -136 291 -259z m133
119 c267 -27 512 -95 720 -201 364 -186 634 -508 769 -918 113 -343 126 -731
36 -1016 l-25 -77 80 -36 c43 -20 79 -39 79 -42 0 -4 -586 -187 -724 -227 -14
-4 -7 11 26 58 148 209 244 458 268 698 39 371 -119 773 -419 1071 -47 47
-122 112 -166 145 -99 74 -262 157 -356 182 -71 18 -73 19 -248 182 -97 89
-183 169 -191 177 -12 12 -10 14 17 14 17 0 77 -5 134 -10z m739 -1148 c72
-24 168 -83 217 -134 17 -18 48 -60 68 -93 151 -253 66 -578 -190 -720 -116
-65 -102 -64 -935 -67 l-755 -3 -74 27 c-375 137 -478 596 -195 868 71 68 177
124 264 139 32 5 367 8 795 7 727 -2 741 -3 805 -24z"/>
<path d="M2490 2486 l0 -466 346 0 c282 0 358 3 417 16 98 22 161 56 228 123
98 99 135 202 127 357 -10 191 -111 332 -291 404 -62 25 -64 25 -444 28 l-383
3 0 -465z m840 234 l0 -70 -332 2 -333 3 -3 54 c-2 29 -1 60 2 67 4 12 65 14
336 14 l330 0 0 -70z m-60 -235 l0 -65 -277 2 -278 3 -3 63 -3 62 281 0 280 0
0 -65z m60 -235 l0 -70 -332 2 -333 3 -3 68 -3 67 336 0 335 0 0 -70z"/>
<path d="M1690 2726 l0 -66 244 0 245 0 20 -26 c28 -36 29 -106 1 -134 -19
-19 -33 -20 -265 -20 l-245 0 0 -150 0 -150 65 0 65 0 0 79 0 78 41 7 c22 4
107 6 188 5 159 -1 193 7 243 53 46 44 62 87 63 164 0 61 -4 77 -30 119 -21
35 -45 56 -80 74 -49 26 -54 26 -302 29 l-253 3 0 -65z"/>
</g>
</svg>
